<svg width="21" height="16" viewBox="0 0 21 16" fill="none" xmlns="http://www.w3.org/2000/svg">
<path fillRule="evenodd" clipRule="evenodd" d="M0.723878 6.99831L6.84788 0.425147C6.96999 0.291401 7.1156 0.184965 7.27627 0.111994C7.43695 0.039023 7.60951 0.000963858 7.78397 1.8072e-05C7.95844 -0.000927714 8.13134 0.0352582 8.2927 0.106484C8.45405 0.177709 8.60065 0.282561 8.72402 0.414976C8.84739 0.547391 8.94507 0.704742 9.01143 0.877931C9.07779 1.05112 9.1115 1.23671 9.11062 1.42397C9.10974 1.61123 9.07428 1.79645 9.0063 1.96891C8.93831 2.14137 8.83915 2.29765 8.71454 2.42872L3.51454 8.01012L8.71454 13.5915C8.95796 13.8581 9.09352 14.2171 9.09176 14.5903C9.09001 14.9636 8.95108 15.3211 8.70516 15.585C8.45925 15.849 8.12622 15.9981 7.77845 16C7.43068 16.0019 7.09626 15.8564 6.84788 15.5951L0.723878 9.02336C0.473917 8.75498 0.333496 8.39104 0.333496 8.01155C0.333496 7.63207 0.473917 7.26812 0.723878 6.99974V6.99831Z" fill="#091E42"/>
<path fillRule="evenodd" clipRule="evenodd" d="M19.3839 9.3334H1.38388V6.66674H19.3839C20.1203 6.66674 20.7172 7.26369 20.7172 8.00007C20.7172 8.73645 20.1203 9.3334 19.3839 9.3334Z" fill="#091E42"/>
</svg>
